<svg width="221" height="179" viewBox="0 0 221 179" fill="none" xmlns="http://www.w3.org/2000/svg">
<path d="M178.329 52L181.337 86.6204H175.32L178.329 52Z" fill="#F52DED" fill-opacity="0.65"/>
<path d="M172.705 86.0221C173.968 85.6445 175.088 84.8951 175.918 83.8718C176.749 82.8484 177.252 81.5985 177.362 80.2851L175.941 80.1662C175.855 81.1942 175.462 82.1725 174.811 82.9734C174.161 83.7743 173.285 84.3608 172.297 84.6564L172.705 86.0221Z" fill="#F52DED" fill-opacity="0.65"/>
<path d="M179.144 80.8223C179.388 82.1178 180.015 83.3099 180.946 84.2433C181.876 85.1768 183.067 85.8082 184.361 86.0552L184.629 84.655C183.615 84.4617 182.684 83.9675 181.955 83.2369C181.227 82.5064 180.736 81.5733 180.545 80.5594L179.144 80.8223Z" fill="#F52DED" fill-opacity="0.65"/>
<path d="M184.187 86.4305C182.912 86.7643 181.767 87.4746 180.902 88.4687C180.036 89.4628 179.49 90.6946 179.335 92.0035L180.751 92.1713C180.872 91.1469 181.299 90.1828 181.977 89.4047C182.654 88.6267 183.55 88.0708 184.548 87.8095L184.187 86.4305Z" fill="#F52DED" fill-opacity="0.65"/>
<path d="M177.453 92.0822C177.32 90.7709 176.795 89.5302 175.946 88.5218C175.097 87.5134 173.964 86.7841 172.695 86.429L172.311 87.8018C173.304 88.0797 174.191 88.6505 174.855 89.4397C175.519 90.2289 175.931 91.2 176.035 92.2263L177.453 92.0822Z" fill="#F52DED" fill-opacity="0.65"/>
<path d="M178.328 120L175.32 85.7518H181.337L178.328 120Z" fill="#F52DED" fill-opacity="0.65"/>
<path d="M155 86L175.847 83.6358V88.3642L155 86Z" fill="#F52DED" fill-opacity="0.65"/>
<path d="M201.657 86L180.81 88.3642V83.6358L201.657 86Z" fill="#F52DED" fill-opacity="0.65"/>
<mask id="path-9-outside-1_12_478" maskUnits="userSpaceOnUse" x="22" y="69" width="42" height="75" fill="black">
<rect fill="white" x="22" y="69" width="42" height="75"/>
<path d="M23.8867 143V70.3438H30.1855V137.482H62.8516L62.5586 143H23.8867Z"/>
</mask>
<path d="M23.8867 143V70.3438H30.1855V137.482H62.8516L62.5586 143H23.8867Z" fill="#F03CF4" fill-opacity="0.65"/>
<path d="M23.8867 143H22.8867V144H23.8867V143ZM23.8867 70.3438V69.3438H22.8867V70.3438H23.8867ZM30.1855 70.3438H31.1855V69.3438H30.1855V70.3438ZM30.1855 137.482H29.1855V138.482H30.1855V137.482ZM62.8516 137.482L63.8502 137.535L63.9061 136.482H62.8516V137.482ZM62.5586 143V144H63.5069L63.5572 143.053L62.5586 143ZM24.8867 143V70.3438H22.8867V143H24.8867ZM23.8867 71.3438H30.1855V69.3438H23.8867V71.3438ZM29.1855 70.3438V137.482H31.1855V70.3438H29.1855ZM30.1855 138.482H62.8516V136.482H30.1855V138.482ZM61.853 137.429L61.56 142.947L63.5572 143.053L63.8502 137.535L61.853 137.429ZM62.5586 142H23.8867V144H62.5586V142Z" fill="#F03CF4" fill-opacity="0.65" mask="url(#path-9-outside-1_12_478)"/>
<mask id="path-11-outside-2_12_478" maskUnits="userSpaceOnUse" x="7" y="29" width="42" height="75" fill="black">
<rect fill="white" x="7" y="29" width="42" height="75"/>
<path d="M8.88672 103V30.3438H15.1855V97.4824H47.8516L47.5586 103H8.88672Z"/>
</mask>
<path d="M8.88672 103V30.3438H15.1855V97.4824H47.8516L47.5586 103H8.88672Z" fill="#780DAA" fill-opacity="0.78"/>
<path d="M8.88672 103H7.88672V104H8.88672V103ZM8.88672 30.3438V29.3438H7.88672V30.3438H8.88672ZM15.1855 30.3438H16.1855V29.3438H15.1855V30.3438ZM15.1855 97.4824H14.1855V98.4824H15.1855V97.4824ZM47.8516 97.4824L48.8502 97.5354L48.9061 96.4824H47.8516V97.4824ZM47.5586 103V104H48.5069L48.5572 103.053L47.5586 103ZM9.88672 103V30.3438H7.88672V103H9.88672ZM8.88672 31.3438H15.1855V29.3438H8.88672V31.3438ZM14.1855 30.3438V97.4824H16.1855V30.3438H14.1855ZM15.1855 98.4824H47.8516V96.4824H15.1855V98.4824ZM46.853 97.4294L46.56 102.947L48.5572 103.053L48.8502 97.5354L46.853 97.4294ZM47.5586 102H8.88672V104H47.5586V102Z" fill="#780DAA" fill-opacity="0.78" mask="url(#path-11-outside-2_12_478)"/>
<path d="M167 152C243.789 122.613 234.046 40.2533 167 7C217.406 32 225.5 129.612 167 152Z" fill="#780DAA" fill-opacity="0.78"/>
<path d="M69.7109 60.6016V82.8672C69.7109 86.0898 68.5 88.8926 66.0781 91.2754C63.8125 93.4824 60.9707 94.5859 57.5527 94.5859C54.1738 94.5859 51.332 93.4824 49.0273 91.2754C46.6055 88.9316 45.3945 86.1289 45.3945 82.8672V63.2383L50.9609 60.6016H51.2539V82.8672C51.2539 85.1133 51.8594 86.7637 53.0703 87.8184C54.3008 88.8535 55.7949 89.3711 57.5527 89.3711C59.3105 89.3711 60.7949 88.8535 62.0059 87.8184C63.2363 86.7637 63.8516 85.1133 63.8516 82.8672V63.2383L69.418 60.6016H69.7109ZM78.5 95.1719V72.9062C78.5 69.6836 79.7109 66.8809 82.1328 64.498C84.3984 62.291 87.2402 61.1875 90.6582 61.1875C94.0371 61.1875 96.8789 62.291 99.1836 64.498C101.605 66.8418 102.816 69.6445 102.816 72.9062V92.5352L97.25 95.1719H96.957V72.9062C96.957 70.6602 96.3418 69.0195 95.1113 67.9844C93.9004 66.9297 92.416 66.4023 90.6582 66.4023C88.9004 66.4023 87.4062 66.9297 86.1758 67.9844C84.9648 69.0195 84.3594 70.6602 84.3594 72.9062V92.5352L78.793 95.1719H78.5ZM133.871 92.5352L128.305 95.1719H128.012V92.0957C126.449 93.7559 124.35 94.5859 121.713 94.5859C118.061 94.5859 115.219 93.4824 113.188 91.2754C111.156 89.0684 110.141 86.4609 110.141 83.4531C110.141 80.3281 111.244 77.6719 113.451 75.4844C115.58 73.375 118.334 72.3203 121.713 72.3203C124.115 72.3203 126.215 73.1504 128.012 74.8105C128.012 71.3535 127.406 69.0781 126.195 67.9844C125.023 66.9297 123.529 66.4023 121.713 66.4023H114.594V66.1094L116.938 61.1875H121.713C125.131 61.1875 127.973 62.291 130.238 64.498C132.66 66.8613 133.871 69.6641 133.871 72.9062V92.5352ZM115.883 83.4531C115.883 85.1914 116.41 86.627 117.465 87.7598C118.48 88.8535 119.906 89.4004 121.742 89.4004C123.656 89.4004 125.141 88.8438 126.195 87.7305C127.367 86.4805 127.953 85.0742 127.953 83.5117C127.953 81.7539 127.348 80.3281 126.137 79.2344C124.926 78.1406 123.471 77.5938 121.771 77.5938C119.994 77.5938 118.568 78.1699 117.494 79.3223C116.42 80.4746 115.883 81.8516 115.883 83.4531ZM142.66 95.1719V72.9062C142.66 69.6836 143.871 66.8809 146.293 64.498C148.559 62.291 151.4 61.1875 154.818 61.1875H158.773V61.4805L156.43 66.4023H154.818C153.061 66.4023 151.566 66.9297 150.336 67.9844C149.125 69.0195 148.52 70.6602 148.52 72.9062C148.52 72.9062 148.52 79.4492 148.52 92.5352L142.953 95.1719H142.66Z" fill="#780DAA" fill-opacity="0.78"/>
<path d="M65.3945 125.867V115.906C65.3945 112.684 66.6055 109.881 69.0273 107.498C71.293 105.291 74.1348 104.188 77.5527 104.188C80.9316 104.188 83.7734 105.291 86.0781 107.498C88.5 109.842 89.7109 112.645 89.7109 115.906V125.867C89.7109 129.09 88.5 131.893 86.0781 134.275C83.8125 136.482 80.9707 137.586 77.5527 137.586C74.1738 137.586 71.332 136.482 69.0273 134.275C66.6055 131.932 65.3945 129.129 65.3945 125.867ZM71.2539 125.867C71.2539 128.113 71.8594 129.764 73.0703 130.818C74.3008 131.854 75.7949 132.371 77.5527 132.371C79.3105 132.371 80.7949 131.854 82.0059 130.818C83.2363 129.764 83.8516 128.113 83.8516 125.867V115.906C83.8516 113.66 83.2363 112.02 82.0059 110.984C80.7949 109.93 79.3105 109.402 77.5527 109.402C75.7949 109.402 74.3008 109.93 73.0703 110.984C71.8594 112.02 71.2539 113.66 71.2539 115.906V125.867ZM104.359 125.867C104.359 128.113 104.965 129.764 106.176 130.818C107.406 131.854 108.9 132.371 110.658 132.371C112.416 132.371 113.9 131.854 115.111 130.818C116.342 129.764 116.957 128.113 116.957 125.867V115.906C116.957 113.66 116.342 112.02 115.111 110.984C113.9 109.93 112.416 109.402 110.658 109.402C108.9 109.402 107.406 109.93 106.176 110.984C104.965 112.02 104.359 113.66 104.359 115.906V125.867ZM98.5 125.867V115.906C98.5 112.684 99.7109 109.881 102.133 107.498C104.398 105.291 107.24 104.188 110.658 104.188C114.076 104.188 116.918 105.291 119.184 107.498C121.605 109.861 122.816 112.664 122.816 115.906V137.879C122.816 141.102 121.605 143.904 119.184 146.287C116.918 148.494 114.076 149.598 110.658 149.598H101.635V149.305L103.979 144.383H110.658C112.416 144.383 113.9 143.855 115.111 142.801C116.342 141.766 116.957 140.125 116.957 137.879V135.096C115.473 136.756 113.373 137.586 110.658 137.586C107.279 137.586 104.438 136.482 102.133 134.275C99.7109 131.932 98.5 129.129 98.5 125.867ZM131.605 126.658L137.172 124.021H137.465V126.365C137.465 128.553 138.1 130.213 139.369 131.346C140.58 132.42 142.045 132.957 143.764 132.957C145.756 132.957 147.309 132.322 148.422 131.053C149.594 129.725 150.18 128.279 150.18 126.717C150.18 125.037 149.555 123.709 148.305 122.732C147.23 121.893 145.707 121.473 143.734 121.473C140.258 121.473 137.514 120.711 135.502 119.188C133.725 117.859 132.836 115.799 132.836 113.006C132.836 110.291 134.076 108.045 136.557 106.268C138.49 104.881 140.893 104.188 143.764 104.188C146.518 104.188 148.91 105.047 150.941 106.766C152.504 108.113 153.471 109.676 153.842 111.453L148.275 114.09H147.982V113.24C147.982 112.225 147.689 111.355 147.104 110.633C146.166 109.422 144.828 108.816 143.09 108.816C141.703 108.816 140.57 109.256 139.691 110.135C138.832 110.994 138.402 111.951 138.402 113.006C138.402 114.256 138.93 115.252 139.984 115.994C140.57 116.404 141.82 116.609 143.734 116.609C147.699 116.609 150.678 117.518 152.67 119.334C154.838 121.307 155.922 123.875 155.922 127.039C155.922 129.578 154.799 132 152.553 134.305C150.424 136.492 147.494 137.586 143.764 137.586C140.385 137.586 137.543 136.648 135.238 134.773C132.816 132.801 131.605 130.096 131.605 126.658Z" fill="#F03CF4" fill-opacity="0.65"/>
</svg>
