<svg width="47" height="68" viewBox="0 0 47 68" fill="none" xmlns="http://www.w3.org/2000/svg">
<path d="M23.3285 0L26.3375 34.6204H20.3196L23.3285 0Z" fill="#780DAA" fill-opacity="0.78"/>
<path d="M17.705 34.0221C18.9678 33.6445 20.0875 32.8951 20.9182 31.8718C21.7489 30.8484 22.2519 29.5985 22.3618 28.2851L20.9413 28.1662C20.8553 29.1942 20.4616 30.1725 19.8114 30.9734C19.1613 31.7743 18.2849 32.3608 17.2966 32.6564L17.705 34.0221Z" fill="#780DAA" fill-opacity="0.78"/>
<path d="M24.1444 28.8223C24.3875 30.1178 25.0153 31.3099 25.9459 32.2433C26.8764 33.1768 28.0666 33.8082 29.3613 34.0552L29.6285 32.655C28.6152 32.4617 27.6837 31.9675 26.9554 31.2369C26.227 30.5064 25.7357 29.5733 25.5454 28.5594L24.1444 28.8223Z" fill="#780DAA" fill-opacity="0.78"/>
<path d="M29.1871 34.4305C27.912 34.7643 26.7671 35.4746 25.9017 36.4687C25.0362 37.4628 24.4903 38.6946 24.3352 40.0035L25.7508 40.1713C25.8722 39.1469 26.2994 38.1828 26.9768 37.4047C27.6541 36.6267 28.5502 36.0708 29.5482 35.8095L29.1871 34.4305Z" fill="#780DAA" fill-opacity="0.78"/>
<path d="M22.453 40.0822C22.3198 38.7709 21.7945 37.5301 20.9457 36.5217C20.097 35.5133 18.9641 34.7841 17.6948 34.429L17.3107 35.8017C18.3042 36.0797 19.1909 36.6504 19.8552 37.4397C20.5195 38.2289 20.9306 39.2 21.0349 40.2263L22.453 40.0822Z" fill="#780DAA" fill-opacity="0.78"/>
<path d="M23.3285 68L20.3195 33.7518H26.3374L23.3285 68Z" fill="#780DAA" fill-opacity="0.78"/>
<path d="M0 34L20.8467 31.6358V36.3642L0 34Z" fill="#780DAA" fill-opacity="0.78"/>
<path d="M46.6569 34L25.8102 36.3642V31.6358L46.6569 34Z" fill="#780DAA" fill-opacity="0.78"/>
</svg>
