<svg width="36" height="66" viewBox="0 0 36 66" fill="none" xmlns="http://www.w3.org/2000/svg">
<path d="M3.39844 41V12.1133H6.79688V37.9922H19.5117L19.3945 41H3.39844Z" fill="black"/>
<path d="M24.9781 8L26.3941 24.292H23.5621L24.9781 8Z" fill="black"/>
<path d="M22.3318 24.0104C22.926 23.8327 23.453 23.4801 23.8439 22.9985C24.2348 22.5169 24.4715 21.9287 24.5232 21.3106L23.8547 21.2547C23.8143 21.7385 23.629 22.1988 23.323 22.5757C23.0171 22.9526 22.6047 23.2286 22.1396 23.3677L22.3318 24.0104Z" fill="black"/>
<path d="M25.3621 21.5635C25.4765 22.1731 25.7719 22.7341 26.2098 23.1733C26.6477 23.6126 27.2078 23.9097 27.8171 24.026L27.9428 23.3671C27.466 23.2761 27.0276 23.0435 26.6849 22.6997C26.3421 22.3559 26.1109 21.9169 26.0214 21.4397L25.3621 21.5635Z" fill="black"/>
<path d="M27.7351 24.2026C27.1351 24.3597 26.5963 24.694 26.189 25.1618C25.7817 25.6296 25.5249 26.2092 25.4519 26.8252L26.118 26.9041C26.1752 26.4221 26.3762 25.9684 26.695 25.6022C27.0137 25.2361 27.4354 24.9745 27.905 24.8515L27.7351 24.2026Z" fill="black"/>
<path d="M24.5661 26.8622C24.5034 26.2451 24.2562 25.6613 23.8568 25.1867C23.4574 24.7122 22.9243 24.369 22.3269 24.2019L22.1462 24.8479C22.6137 24.9787 23.031 25.2473 23.3436 25.6187C23.6562 25.9901 23.8497 26.4471 23.8987 26.93L24.5661 26.8622Z" fill="black"/>
<path d="M24.9781 40L23.5621 23.8832H26.3941L24.9781 40Z" fill="black"/>
<path d="M14 24L23.8102 22.8874V25.1126L14 24Z" fill="black"/>
<path d="M35.9562 24L26.146 25.1126V22.8874L35.9562 24Z" fill="black"/>
<path d="M12.3984 56V27.1133H15.7969V52.9922H28.5117L28.3945 56H12.3984Z" fill="black"/>
</svg>
